<svg fill="#228BE6" xmlns="http://www.w3.org/2000/svg"  viewBox="0 0 64 64" width="48px" height="48px"><path d="M45.963,16.358C50.269,20.207,53,25.784,53,32c0,11.58-9.421,21-21,21c-3.091,0-6.019-0.689-8.665-1.893	L21.93,52.29C21.37,52.77,20.69,53,20,53c-0.75,0-1.5-0.28-2.08-0.84c-1.11-1.07-1.23-2.8-0.28-4.01l0.397-0.508	C13.731,43.793,11,38.216,11,32c0-11.58,9.421-21,21-21c3.091,0,6.019,0.689,8.665,1.893l1.405-1.183C42.63,11.23,43.31,11,44,11	c0.75,0,1.5,0.28,2.08,0.84c1.11,1.07,1.23,2.8,0.28,4.01L45.963,16.358z M39,34h-6.071L40,25h-4.594L44,14L25,30h6.071L24,39h4.594	L20,50L39,34z"/></svg>